<svg id="Facebook-f_Logo-Black-Logo.wine" xmlns="http://www.w3.org/2000/svg" width="30.19" height="30.19" viewBox="0 0 30.19 30.19">
  <path id="Trazado_37" data-name="Trazado 37" d="M30.19,15.095A15.095,15.095,0,1,0,12.736,30.007V19.458H8.9V15.095h3.833V11.769c0-3.783,2.254-5.873,5.7-5.873a23.214,23.214,0,0,1,3.379.295V9.906h-1.9a2.182,2.182,0,0,0-2.46,2.357v2.832H21.64l-.669,4.363H17.454V30.007A15.1,15.1,0,0,0,30.19,15.095" fill="#848484"/>
  <path id="Trazado_38" data-name="Trazado 38" d="M414.734,280.229l.669-4.363h-4.187v-2.832a2.182,2.182,0,0,1,2.46-2.357h1.9v-3.715a23.215,23.215,0,0,0-3.379-.295c-3.448,0-5.7,2.09-5.7,5.873v3.326h-3.833v4.363H406.5v10.548a15.257,15.257,0,0,0,4.717,0V280.229h3.517" transform="translate(-393.763 -260.771)"/>
</svg>
