<svg id="GitHub-Icon-White-Logo.wine" xmlns="http://www.w3.org/2000/svg" width="30.037" height="29.295" viewBox="0 0 30.037 29.295">
  <path id="Trazado_39" data-name="Trazado 39" d="M15.018,0a15.02,15.02,0,0,0-4.748,29.269c.751.139,1.026-.326,1.026-.723,0-.358-.014-1.541-.02-2.8-4.178.909-5.06-1.772-5.06-1.772a3.978,3.978,0,0,0-1.668-2.2c-1.363-.932.1-.913.1-.913a3.157,3.157,0,0,1,2.3,1.548,3.2,3.2,0,0,0,4.37,1.248,3.2,3.2,0,0,1,.954-2.008c-3.336-.379-6.842-1.667-6.842-7.422A5.812,5.812,0,0,1,6.983,10.2a5.4,5.4,0,0,1,.146-3.975s1.261-.4,4.131,1.54a14.239,14.239,0,0,1,7.521,0c2.867-1.943,4.126-1.54,4.126-1.54a5.391,5.391,0,0,1,.147,3.975A5.8,5.8,0,0,1,24.6,14.234c0,5.769-3.513,7.038-6.858,7.41a3.59,3.59,0,0,1,1.019,2.781c0,2.01-.017,3.627-.017,4.121,0,.4.27.868,1.031.721A15.021,15.021,0,0,0,15.019,0" fill="#fff" fill-rule="evenodd"/>
  <path id="Trazado_40" data-name="Trazado 40" d="M7.9,30.48c-.033.075-.151.1-.257.046s-.17-.151-.135-.226.15-.1.259-.047.171.152.134.227m.608.679c-.072.066-.212.036-.307-.069a.229.229,0,0,1-.044-.312c.074-.066.21-.035.308.069s.118.245.043.312m.592.865c-.092.064-.243,0-.336-.129s-.092-.294,0-.358.242-.006.336.126.092.3,0,.361m.811.836c-.082.091-.258.066-.386-.057a.289.289,0,0,1-.086-.384c.084-.091.26-.065.389.057s.17.294.082.384m1.119.485c-.037.118-.205.171-.375.121s-.281-.189-.247-.308.205-.174.376-.121.281.188.246.308m1.229.09c0,.124-.14.227-.319.229s-.325-.1-.327-.218.141-.227.321-.23.325.1.325.219M13.4,33.24c.021.121-.1.245-.28.278s-.336-.043-.358-.162.1-.248.279-.28.336.042.359.165" transform="translate(-2.212 -8.917)" fill="#fff"/>
</svg>
