<svg id="Instagram-Glyph-Black-Logo.wine" xmlns="http://www.w3.org/2000/svg" width="28.895" height="28.896" viewBox="0 0 28.895 28.896">
  <path id="Trazado_41" data-name="Trazado 41" d="M14.448,0c-3.924,0-4.416.017-5.957.087A10.606,10.606,0,0,0,4.984.758,7.082,7.082,0,0,0,2.425,2.425,7.081,7.081,0,0,0,.758,4.984,10.605,10.605,0,0,0,.087,8.491C.017,10.032,0,10.524,0,14.448S.017,18.863.087,20.4a10.605,10.605,0,0,0,.672,3.507,7.083,7.083,0,0,0,1.666,2.559,7.082,7.082,0,0,0,2.559,1.666,10.607,10.607,0,0,0,3.507.672c1.541.07,2.033.087,5.957.087s4.416-.017,5.957-.087a10.605,10.605,0,0,0,3.507-.672,7.388,7.388,0,0,0,4.225-4.225,10.605,10.605,0,0,0,.672-3.507c.07-1.541.087-2.033.087-5.957s-.017-4.416-.087-5.957a10.605,10.605,0,0,0-.672-3.507,7.082,7.082,0,0,0-1.666-2.559A7.083,7.083,0,0,0,23.911.758,10.605,10.605,0,0,0,20.4.087C18.863.017,18.371,0,14.448,0Zm0,2.6c3.858,0,4.315.015,5.838.084a7.992,7.992,0,0,1,2.683.5A4.476,4.476,0,0,1,24.63,4.266a4.477,4.477,0,0,1,1.081,1.661,7.993,7.993,0,0,1,.5,2.683c.07,1.523.084,1.98.084,5.838s-.015,4.315-.084,5.838a7.992,7.992,0,0,1-.5,2.683,4.785,4.785,0,0,1-2.742,2.742,7.993,7.993,0,0,1-2.683.5c-1.523.07-1.98.084-5.838.084s-4.315-.015-5.838-.084a7.991,7.991,0,0,1-2.683-.5A4.475,4.475,0,0,1,4.266,24.63a4.477,4.477,0,0,1-1.081-1.661,7.994,7.994,0,0,1-.5-2.683c-.07-1.523-.084-1.98-.084-5.838s.015-4.315.084-5.838a7.993,7.993,0,0,1,.5-2.683A4.476,4.476,0,0,1,4.266,4.266,4.477,4.477,0,0,1,5.927,3.185a7.993,7.993,0,0,1,2.683-.5c1.523-.07,1.98-.084,5.838-.084" fill="#848484"/>
  <path id="Trazado_42" data-name="Trazado 42" d="M170.827,130.547a4.816,4.816,0,1,1,4.816-4.816A4.816,4.816,0,0,1,170.827,130.547Zm0-12.235a7.419,7.419,0,1,0,7.419,7.419,7.419,7.419,0,0,0-7.419-7.419m9.446-.293a1.734,1.734,0,1,1-1.734-1.734,1.734,1.734,0,0,1,1.734,1.734" transform="translate(-156.379 -111.283)" fill="#848484"/>
</svg>
