<svg xmlns="http://www.w3.org/2000/svg" width="105.174" height="55.98" viewBox="0 0 105.174 55.98">
  <g id="Componente_4_1" data-name="Componente 4 – 1" transform="translate(0 1)">
    <text id="_CAIO" data-name="
CAIO" transform="translate(42.174 22)" fill="#fff" stroke="#fff" stroke-width="1" font-size="29" font-family="CorbelLight, Corbel" letter-spacing="0.023em"><tspan x="0" y="0"></tspan><tspan letter-spacing="-0.01em"><tspan x="0" y="22">CAIO</tspan></tspan></text>
    <g id="Grupo_2" data-name="Grupo 2" transform="translate(0 2.98)">
      <path id="Trazado_1" data-name="Trazado 1" d="M274.3,356.025" transform="translate(-230.182 -332.23)" fill="none" stroke="#fff" stroke-width="1"/>
      <path id="Trazado_2" data-name="Trazado 2" d="M254.2,355.666" transform="translate(-224.265 -332.124)" fill="none" stroke="#fff" stroke-width="1"/>
      <path id="Trazado_3" data-name="Trazado 3" d="M248.026,355.668" transform="translate(-222.447 -332.125)" fill="none" stroke="#fff" stroke-width="1"/>
      <path id="Trazado_4" data-name="Trazado 4" d="M228.167,355.942c8.422-.113,17.514-.183,25.695-.2" transform="translate(-216.6 -332.146)" fill="none" stroke="#fff" stroke-width="1"/>
      <path id="Trazado_5" data-name="Trazado 5" d="M242.032,382.777" transform="translate(-220.682 -340.107)" fill="none" stroke="#fff" stroke-width="1"/>
      <line id="Línea_1" data-name="Línea 1" x1="9.49" y1="4.944" transform="translate(27.694 45.975)" fill="none" stroke="#fff" stroke-width="1"/>
      <line id="Línea_2" data-name="Línea 2" y1="22.395" x2="9.145" transform="translate(28.04 23.76)" fill="none" stroke="#fff" stroke-width="1"/>
      <line id="Línea_3" data-name="Línea 3" x2="18.156" y2="17.64" transform="translate(11.761 23.913)" fill="none" stroke="#fff" stroke-width="1"/>
      <line id="Línea_4" data-name="Línea 4" y1="18.122" x2="17.722" transform="translate(19.426 5.572)" fill="none" stroke="#fff" stroke-width="1"/>
      <path id="Trazado_6" data-name="Trazado 6" d="M221.239,322.95" transform="translate(-214.56 -322.491)" fill="none" stroke="#fff" stroke-width="1"/>
      <line id="Línea_5" data-name="Línea 5" x1="8.13" y1="8.695" transform="translate(15.722 10.491)" fill="none" stroke="#fff" stroke-width="1"/>
      <path id="Trazado_7" data-name="Trazado 7" d="M228.624,322.3" transform="translate(-216.734 -322.299)" fill="none" stroke="#fff" stroke-width="1"/>
      <line id="Línea_6" data-name="Línea 6" y1="13.873" transform="translate(11.89 10.347)" fill="none" stroke="#fff" stroke-width="1"/>
      <path id="Trazado_8" data-name="Trazado 8" d="M241.507,337.33" transform="translate(-220.527 -326.725)" fill="none" stroke="#fff" stroke-width="1"/>
      <line id="Línea_7" data-name="Línea 7" x2="4.094" transform="translate(11.89 10.605)" fill="none" stroke="#fff" stroke-width="1"/>
      <line id="Línea_8" data-name="Línea 8" x2="0.641" transform="translate(11.249 10.604)" fill="none" stroke="#fff" stroke-width="1"/>
      <path id="Trazado_9" data-name="Trazado 9" d="M227.716,337.329" transform="translate(-216.467 -326.725)" fill="none" stroke="#fff" stroke-width="1"/>
      <path id="Trazado_10" data-name="Trazado 10" d="M220.378,337.329" transform="translate(-214.306 -326.725)" fill="none" stroke="#fff" stroke-width="1"/>
      <path id="Trazado_11" data-name="Trazado 11" d="M237.013,329.759" transform="translate(-219.204 -324.496)" fill="none" stroke="#fff" stroke-width="1"/>
      <line id="Línea_9" data-name="Línea 9" y1="5.13" x2="5.461" transform="translate(6.03 10.505)" fill="none" stroke="#fff" stroke-width="1"/>
      <path id="Trazado_12" data-name="Trazado 12" d="M232.283,344.6" transform="translate(-217.811 -328.864)" fill="none" stroke="#fff" stroke-width="1"/>
      <line id="Línea_10" data-name="Línea 10" x2="6.155" transform="translate(5.786 15.731)" fill="none" stroke="#fff" stroke-width="1"/>
      <path id="Trazado_13" data-name="Trazado 13" d="M219.972,344.594" transform="translate(-214.186 -328.864)" fill="none" stroke="#fff" stroke-width="1"/>
      <path id="Trazado_14" data-name="Trazado 14" d="M211.772,344.594" transform="translate(-211.772 -328.864)" fill="none" stroke="#fff" stroke-width="1"/>
      <path id="Trazado_15" data-name="Trazado 15" d="M295.665,330.594" transform="translate(-236.474 -324.741)" fill="none" stroke="#fff" stroke-width="1"/>
      <path id="Trazado_16" data-name="Trazado 16" d="M264.273,329.295c1.136-2.048,14.632-5.02,18.483.687" transform="translate(-227.231 -323.586)" fill="none" stroke="#fff" stroke-width="1"/>
      <line id="Línea_11" data-name="Línea 11" y1="17.907" x2="18.355" transform="translate(37.184 5.852)" fill="none" stroke="#fff" stroke-width="1"/>
      <path id="Trazado_17" data-name="Trazado 17" d="M286.688,334.3c2.661.718,6.454,1.889,6.834,5" transform="translate(-233.831 -325.833)" fill="none" stroke="#fff" stroke-width="1"/>
      <path id="Trazado_18" data-name="Trazado 18" d="M263.919,394.892" transform="translate(-227.127 -343.674)" fill="none" stroke="#fff" stroke-width="1"/>
      <path id="Trazado_19" data-name="Trazado 19" d="M264.474,396" transform="translate(-227.29 -344)" fill="none" stroke="#fff" stroke-width="1"/>
      <path id="Trazado_20" data-name="Trazado 20" d="M263.155,344.261c.723,11.673,5.844,23.567.468,35.543" transform="translate(-226.902 -328.766)" fill="none" stroke="#fff" stroke-width="1"/>
      <path id="Trazado_21" data-name="Trazado 21" d="M263.161,344.688" transform="translate(-226.904 -328.891)" fill="none" stroke="#fff" stroke-width="1"/>
      <path id="Trazado_22" data-name="Trazado 22" d="M263.108,338.5" transform="translate(-226.888 -327.069)" fill="none" stroke="#fff" stroke-width="1"/>
      <path id="Trazado_23" data-name="Trazado 23" d="M264,330.188a29.113,29.113,0,0,0-.883,5.908" transform="translate(-226.891 -324.622)" fill="none" stroke="#fff" stroke-width="1"/>
      <line id="Línea_12" data-name="Línea 12" y1="6.304" x2="18.274" transform="translate(41.726 13.024)" fill="none" stroke="#fff" stroke-width="1"/>
      <g id="Grupo_1" data-name="Grupo 1" transform="translate(36.364 10.693)">
        <path id="Trazado_24" data-name="Trazado 24" d="M263.367,337.9a2.168,2.168,0,0,1,1.2-.448,2.6,2.6,0,0,1,2.538,2.676A2.656,2.656,0,0,1,264.742,343" transform="translate(-263.328 -337.455)" fill="none" stroke="#fff" stroke-width="1"/>
        <path id="Trazado_25" data-name="Trazado 25" d="M264.726,345.121a1.875,1.875,0,0,1-1.414-.467" transform="translate(-263.312 -339.574)" fill="none" stroke="#fff" stroke-width="1"/>
      </g>
    </g>
  </g>
</svg>
